<mxfile host="app.diagrams.net" modified="2023-09-01T19:02:26.422Z" agent="Mozilla/5.0 (Windows NT 10.0; Win64; x64) AppleWebKit/537.36 (KHTML, like Gecko) Chrome/116.0.0.0 Safari/537.36 Edg/116.0.1938.62" etag="mfCi5ZIZrb-lluRwklYK" version="21.6.9" type="device">
  <diagram name="Page-1" id="Z5ALuNvl0iMRLHfgMla-">
    <mxGraphModel dx="1549" dy="1255" grid="1" gridSize="10" guides="1" tooltips="1" connect="1" arrows="1" fold="1" page="1" pageScale="1" pageWidth="850" pageHeight="1100" math="0" shadow="0">
      <root>
        <mxCell id="0" />
        <mxCell id="1" parent="0" />
        <mxCell id="rNTZTxFPcRL-1KUgIVTD-1" value="Vertical Container" style="swimlane;whiteSpace=wrap;html=1;" vertex="1" parent="1">
          <mxGeometry x="340" y="450" width="200" height="200" as="geometry">
            <mxRectangle x="340" y="450" width="140" height="30" as="alternateBounds" />
          </mxGeometry>
        </mxCell>
        <mxCell id="rNTZTxFPcRL-1KUgIVTD-3" value="" style="rounded=1;whiteSpace=wrap;html=1;" vertex="1" parent="rNTZTxFPcRL-1KUgIVTD-1">
          <mxGeometry x="10" y="30" width="120" height="60" as="geometry" />
        </mxCell>
      </root>
    </mxGraphModel>
  </diagram>
</mxfile>
